<?xml version="1.0" encoding="utf-8"?>
<!-- Generator: Adobe Illustrator 15.1.0, SVG Export Plug-In . SVG Version: 6.00 Build 0)  -->
<!DOCTYPE svg PUBLIC "-//W3C//DTD SVG 1.1//EN" "http://www.w3.org/Graphics/SVG/1.1/DTD/svg11.dtd">
<svg version="1.1" id="Layer_1" xmlns="http://www.w3.org/2000/svg" xmlns:xlink="http://www.w3.org/1999/xlink" x="0px" y="0px"
	 width="40px" height="40px" viewBox="0 0 40 40" enable-background="new 0 0 40 40" xml:space="preserve">
<path fill="#FFFFFF" d="M17.21,24.091c0-1.018-0.53-2.676-1.785-2.676c-1.255,0-1.785,1.658-1.785,2.676
	c0,1.019,0.53,2.677,1.785,2.677C16.68,26.768,17.21,25.107,17.21,24.091z M26.137,24.091c0-1.018-0.531-2.676-1.785-2.676
	c-1.256,0-1.785,1.658-1.785,2.676c0,1.019,0.529,2.677,1.785,2.677C25.605,26.768,26.137,25.107,26.137,24.091z M28.367,24.091
	c0,4.267-3.905,4.921-7.309,4.921h-2.344c-3.402,0-7.308-0.654-7.308-4.921c0-2.133,1.297-4.015,3.57-4.015
	c0.92,0,1.812,0.167,2.72,0.293c0.725,0.111,1.45,0.152,2.189,0.152c0.739,0,1.463-0.042,2.189-0.152
	c0.921-0.126,1.799-0.293,2.72-0.293C27.07,20.076,28.367,21.958,28.367,24.091z M31.491,21.639c0-2.036-0.558-3.974-1.896-5.55
	c0.25-0.752,0.375-1.547,0.375-2.342c0-1.045-0.236-2.091-0.711-3.039c-2.176,0-3.584,0.935-5.244,2.23
	c-1.269-0.307-2.594-0.446-3.905-0.446c-1.45,0-2.9,0.153-4.31,0.488c-1.673-1.311-3.082-2.272-5.285-2.272
	c-0.475,0.948-0.711,1.994-0.711,3.039c0,0.795,0.125,1.604,0.376,2.37c-1.339,1.562-1.896,3.485-1.896,5.521
	c0,1.547,0.153,3.205,0.864,4.613c1.911,3.764,7.28,4.085,10.962,4.085c3.627,0,8.689-0.362,10.53-4.085
	C31.338,24.83,31.491,23.186,31.491,21.639z"/>
</svg>
