<?xml version="1.0" encoding="utf-8"?>
<!-- Generator: Adobe Illustrator 15.1.0, SVG Export Plug-In . SVG Version: 6.00 Build 0)  -->
<!DOCTYPE svg PUBLIC "-//W3C//DTD SVG 1.1//EN" "http://www.w3.org/Graphics/SVG/1.1/DTD/svg11.dtd">
<svg version="1.1" id="Layer_1" xmlns="http://www.w3.org/2000/svg" xmlns:xlink="http://www.w3.org/1999/xlink" x="0px" y="0px"
	 width="40px" height="40px" viewBox="0 0 40 40" enable-background="new 0 0 40 40" xml:space="preserve">
<path fill="#FFFFFF" d="M36.727,17.299l-15.953,9c-0.028,0.018-0.061,0.025-0.09,0.04c-0.016,0.009-0.033,0.015-0.049,0.021
	c-0.072,0.033-0.145,0.061-0.22,0.08c-0.027,0.009-0.054,0.013-0.081,0.019c-0.065,0.015-0.129,0.026-0.195,0.032
	c-0.046,0.005-0.092,0.004-0.139,0.004s-0.093,0.001-0.139-0.004c-0.065-0.006-0.13-0.018-0.195-0.032
	c-0.027-0.006-0.054-0.01-0.081-0.019c-0.075-0.021-0.147-0.047-0.22-0.08c-0.016-0.008-0.033-0.014-0.049-0.021
	c-0.03-0.015-0.061-0.022-0.09-0.04l-15.953-9c-0.734-0.414-0.986-1.331-0.562-2.049s1.363-0.963,2.097-0.549L20,23.271l15.191-8.57
	c0.733-0.414,1.672-0.169,2.097,0.549C37.712,15.968,37.461,16.885,36.727,17.299z"/>
</svg>
