<?xml version="1.0" encoding="utf-8"?>
<!-- Generator: Adobe Illustrator 15.1.0, SVG Export Plug-In . SVG Version: 6.00 Build 0)  -->
<!DOCTYPE svg PUBLIC "-//W3C//DTD SVG 1.1//EN" "http://www.w3.org/Graphics/SVG/1.1/DTD/svg11.dtd">
<svg version="1.1" id="Layer_1" xmlns="http://www.w3.org/2000/svg" xmlns:xlink="http://www.w3.org/1999/xlink" x="0px" y="0px"
	 width="40px" height="40px" viewBox="0 0 40 40" enable-background="new 0 0 40 40" xml:space="preserve">
<path fill="#FFFFFF" d="M31.38,13.827c-0.81,0.349-1.688,0.6-2.595,0.697c0.936-0.558,1.646-1.437,1.98-2.481
	c-0.865,0.516-1.841,0.892-2.858,1.087c-0.823-0.878-1.995-1.422-3.292-1.422c-2.496,0-4.504,2.021-4.504,4.503
	c0,0.349,0.042,0.697,0.112,1.031c-3.738-0.194-7.071-1.979-9.289-4.712c-0.39,0.67-0.614,1.437-0.614,2.272
	c0,1.562,0.795,2.941,2.008,3.75c-0.739-0.027-1.437-0.236-2.036-0.571c0,0.014,0,0.042,0,0.056c0,2.188,1.548,4.001,3.612,4.419
	c-0.376,0.099-0.781,0.153-1.186,0.153c-0.293,0-0.572-0.027-0.851-0.069c0.572,1.784,2.231,3.081,4.212,3.123
	c-1.548,1.213-3.487,1.924-5.593,1.924c-0.376,0-0.725-0.015-1.088-0.056c1.995,1.281,4.365,2.021,6.917,2.021
	c8.285,0,12.817-6.858,12.817-12.811c0-0.195,0-0.391-0.014-0.586C29.999,15.514,30.766,14.72,31.38,13.827z"/>
</svg>
