<?xml version="1.0" encoding="utf-8"?>
<!-- Generator: Adobe Illustrator 15.1.0, SVG Export Plug-In . SVG Version: 6.00 Build 0)  -->
<!DOCTYPE svg PUBLIC "-//W3C//DTD SVG 1.1//EN" "http://www.w3.org/Graphics/SVG/1.1/DTD/svg11.dtd">
<svg version="1.1" id="Layer_1" xmlns="http://www.w3.org/2000/svg" xmlns:xlink="http://www.w3.org/1999/xlink" x="0px" y="0px"
	 width="40px" height="40px" viewBox="0 0 40 40" enable-background="new 0 0 40 40" xml:space="preserve">
<path fill="#FFFFFF" d="M33.236,13.389c0,0-0.194-0.558-1.408-0.404l-4.016,0.027c-0.308-0.041-0.53,0.084-0.53,0.084
	s-0.237,0.126-0.349,0.433c-0.656,1.687-1.492,3.137-1.492,3.137c-1.785,3.038-2.512,3.206-2.803,3.011
	c-0.685-0.433-0.504-1.757-0.504-2.704c0-2.956,0.446-4.183-0.878-4.503c-0.433-0.098-0.753-0.168-1.883-0.182
	c-1.437-0.014-2.65,0-3.333,0.335c-0.46,0.223-0.809,0.725-0.6,0.753c0.265,0.041,0.865,0.167,1.186,0.599
	c0,0,0.349,0.572,0.404,1.826c0.154,3.472-0.558,3.903-0.558,3.903c-0.544,0.293-1.492-0.194-2.887-3.066
	c0,0-0.809-1.422-1.437-2.983c-0.112-0.293-0.335-0.446-0.335-0.446s-0.251-0.195-0.613-0.251L7.38,12.984
	c-0.585,0-0.795,0.265-0.795,0.265s-0.209,0.224-0.014,0.684c2.984,7.012,6.387,10.524,6.387,10.524s3.11,3.248,6.639,3.025l0,0
	h1.604c0.488-0.043,0.738-0.308,0.738-0.308s0.225-0.251,0.211-0.711c-0.028-2.146,0.976-2.468,0.976-2.468
	c0.978-0.307,2.231,2.077,3.569,2.997c0,0,1.02,0.696,1.785,0.544l3.57-0.057c1.883-0.014,0.99-1.574,0.99-1.574
	c-0.068-0.127-0.518-1.088-2.663-3.081c-2.231-2.077-1.938-1.742,0.767-5.339C32.791,15.299,33.447,13.96,33.236,13.389z"/>
</svg>
