<svg xmlns="http://www.w3.org/2000/svg" version="1.1" x="0" y="0" width="450" height="100" viewBox="0 0 450 100" enable-background="new 0 0 450 100" xml:space="preserve"><path fill-rule="evenodd" clip-rule="evenodd" fill="#9C7A6B" d="M31.83 47.3c0.73 0 1.33 0.59 1.33 1.33 0 0.73-0.59 1.33-1.33 1.33s-1.33-0.59-1.33-1.33C30.5 47.89 31.09 47.3 31.83 47.3z"/><path fill-rule="evenodd" clip-rule="evenodd" fill="#9E9A8C" d="M44.94 46.41c1.22 0 2.22 0.99 2.22 2.21s-0.99 2.21-2.22 2.21c-1.22 0-2.21-0.99-2.21-2.21S43.72 46.41 44.94 46.41z"/><path fill-rule="evenodd" clip-rule="evenodd" fill="#85A9BD" d="M58.06 45.97c1.47 0 2.66 1.19 2.66 2.65 0 1.47-1.19 2.66-2.66 2.66s-2.66-1.19-2.66-2.66C55.41 47.16 56.6 45.97 58.06 45.97z"/><path fill-rule="evenodd" clip-rule="evenodd" fill="#936444" d="M76.19 47.3c0.73 0 1.33 0.59 1.33 1.33 0 0.73-0.59 1.33-1.33 1.33 -0.73 0-1.33-0.59-1.33-1.33C74.86 47.89 75.45 47.3 76.19 47.3z"/><path fill-rule="evenodd" clip-rule="evenodd" fill="#E1B685" d="M125.49 25.13c13.81 0 25 10.52 25 23.5 0 12.98-11.19 23.5-25 23.5s-25-10.52-25-23.5C100.49 35.65 111.68 25.13 125.49 25.13z"/><path fill-rule="evenodd" clip-rule="evenodd" fill="#AAA493" d="M227.97 47.73c-0.08 8.24-5.98 16.09-15.01 18.92 -8.75 2.74-17.77-0.08-22.65-6.37 -15.62 4.1-26.95 5.48-27.77 2.97 -0.82-2.51 9.13-8.2 24.14-14.27 0.32-8.04 6.16-15.62 15-18.38 8.57-2.68 17.4-0.03 22.35 6 15.45-4.03 26.63-5.37 27.44-2.88C252.28 36.19 242.62 41.76 227.97 47.73zM188.52 57.44c-0.42-0.83-0.79-1.68-1.08-2.59 -0.32-1.02-0.51-2.04-0.64-3.07 -5.44 2.65-8.67 4.89-8.26 6C178.94 58.86 182.76 58.64 188.52 57.44zM225.4 38.52c0.74 1.2 1.35 2.49 1.79 3.89 0.16 0.52 0.28 1.05 0.4 1.57 5.21-2.57 8.28-4.73 7.88-5.81C235.06 37.08 231.21 37.3 225.4 38.52z"/><path fill-rule="evenodd" clip-rule="evenodd" fill="#599DB5" d="M275.28 39.86c4.89 0 8.86 3.96 8.86 8.85 0 4.89-3.97 8.85-8.86 8.85s-8.86-3.96-8.86-8.85C266.42 43.82 270.38 39.86 275.28 39.86z"/><path fill-rule="evenodd" clip-rule="evenodd" fill="#426DB2" d="M318.93 40.94c4.29 0 7.77 3.48 7.77 7.77 0 4.29-3.48 7.77-7.77 7.77 -4.29 0-7.77-3.48-7.77-7.77C311.16 44.42 314.64 40.94 318.93 40.94z"/><path fill-rule="evenodd" clip-rule="evenodd" fill="#23262C" d="M392.75 27.92c11.5 0 20.83 9.31 20.83 20.8 0 11.48-9.32 20.79-20.82 20.79s-20.82-9.31-20.82-20.79C371.92 37.23 381.25 27.92 392.75 27.92zM392.58 29.57c10.49 0 19 8.51 19 19 0 10.49-8.51 19-19 19s-19-8.51-19-19C373.58 38.08 382.08 29.57 392.58 29.57z"/><path fill-rule="evenodd" clip-rule="evenodd" fill="#AFAF90" d="M392.75 47.39c0.73 0 1.33 0.59 1.33 1.33 0 0.73-0.6 1.33-1.33 1.33 -0.73 0-1.33-0.59-1.33-1.33C391.42 47.98 392.01 47.39 392.75 47.39z"/></svg>